<?xml version="1.0" encoding="UTF-8"?>
<svg xmlns="http://www.w3.org/2000/svg" xmlns:xlink="http://www.w3.org/1999/xlink" width="375pt" height="374.999991pt" viewBox="0 0 375 374.999991" version="1.2">
<defs>
<clipPath id="clip1">
  <path d="M 203.664062 241 L 341.664062 241 L 341.664062 253 L 203.664062 253 Z M 203.664062 241 "/>
</clipPath>
<clipPath id="clip2">
  <path d="M 203.664062 197.777344 L 341.664062 197.777344 L 341.664062 210 L 203.664062 210 Z M 203.664062 197.777344 "/>
</clipPath>
<clipPath id="clip3">
  <path d="M 203.664062 285 L 341.664062 285 L 341.664062 296.496094 L 203.664062 296.496094 Z M 203.664062 285 "/>
</clipPath>
</defs>
<g id="surface1">
<g clip-path="url(#clip1)" clip-rule="nonzero">
<path style=" stroke:none;fill-rule:nonzero;fill:rgb(0%,0%,0%);fill-opacity:1;" d="M 336.152344 252.832031 L 209.515625 252.832031 C 206.339844 252.832031 203.761719 250.28125 203.761719 247.136719 C 203.761719 243.992188 206.339844 241.441406 209.515625 241.441406 L 336.152344 241.441406 C 339.328125 241.441406 341.90625 243.992188 341.90625 247.136719 C 341.90625 250.28125 339.328125 252.832031 336.152344 252.832031 Z M 336.152344 252.832031 "/>
</g>
<g clip-path="url(#clip2)" clip-rule="nonzero">
<path style=" stroke:none;fill-rule:nonzero;fill:rgb(0%,0%,0%);fill-opacity:1;" d="M 336.152344 209.167969 L 209.515625 209.167969 C 206.339844 209.167969 203.761719 206.617188 203.761719 203.472656 C 203.761719 200.328125 206.339844 197.777344 209.515625 197.777344 L 336.152344 197.777344 C 339.328125 197.777344 341.90625 200.328125 341.90625 203.472656 C 341.90625 206.617188 339.328125 209.167969 336.152344 209.167969 Z M 336.152344 209.167969 "/>
</g>
<g clip-path="url(#clip3)" clip-rule="nonzero">
<path style=" stroke:none;fill-rule:nonzero;fill:rgb(0%,0%,0%);fill-opacity:1;" d="M 336.152344 296.496094 L 209.515625 296.496094 C 206.339844 296.496094 203.761719 293.945312 203.761719 290.800781 C 203.761719 287.65625 206.339844 285.105469 209.515625 285.105469 L 336.152344 285.105469 C 339.328125 285.105469 341.90625 287.65625 341.90625 290.800781 C 341.90625 293.945312 339.328125 296.496094 336.152344 296.496094 Z M 336.152344 296.496094 "/>
</g>
</g>
</svg>
