<?xml version="1.0" encoding="UTF-8"?>
<svg xmlns="http://www.w3.org/2000/svg" xmlns:xlink="http://www.w3.org/1999/xlink" width="375pt" height="374.999991pt" viewBox="0 0 375 374.999991" version="1.2">
<defs>
<clipPath id="clip1">
  <path d="M 126 105 L 260 105 L 260 259 L 126 259 Z M 126 105 "/>
</clipPath>
<clipPath id="clip2">
  <path d="M 89.945312 157.15625 L 225.339844 92.601562 L 285.054688 217.84375 L 149.660156 282.398438 Z M 89.945312 157.15625 "/>
</clipPath>
<clipPath id="clip3">
  <path d="M 225.339844 92.601562 L 89.945312 157.15625 L 149.660156 282.398438 L 285.054688 217.84375 Z M 225.339844 92.601562 "/>
</clipPath>
<clipPath id="clip4">
  <path d="M 225.339844 92.601562 L 89.945312 157.15625 L 149.660156 282.398438 L 285.054688 217.84375 Z M 225.339844 92.601562 "/>
</clipPath>
</defs>
<g id="surface1">
<rect x="0" y="0" width="375" height="374.999991" style="fill:rgb(100%,100%,100%);fill-opacity:1;stroke:none;"/>
<rect x="0" y="0" width="375" height="374.999991" style="fill:rgb(100%,100%,100%);fill-opacity:1;stroke:none;"/>
<rect x="0" y="0" width="375" height="374.999991" style="fill:rgb(100%,100%,100%);fill-opacity:1;stroke:none;"/>
<g clip-path="url(#clip1)" clip-rule="nonzero">
<g clip-path="url(#clip2)" clip-rule="nonzero">
<g clip-path="url(#clip3)" clip-rule="nonzero">
<g clip-path="url(#clip4)" clip-rule="nonzero">
<path style=" stroke:none;fill-rule:nonzero;fill:rgb(0%,0%,0%);fill-opacity:1;" d="M 212.253906 126.027344 C 208.601562 118.367188 203.941406 111.59375 198.355469 105.878906 C 220.878906 110.675781 241.066406 125.578125 251.785156 148.0625 C 270.046875 186.363281 253.753906 232.355469 215.449219 250.621094 C 184.804688 265.230469 149.128906 257.710938 126.789062 234.433594 C 142.734375 237.867188 159.929688 236.210938 175.753906 228.667969 C 214.222656 210.324219 230.519531 164.332031 212.253906 126.027344 Z M 212.253906 126.027344 "/>
</g>
</g>
</g>
</g>
</g>
</svg>
