<?xml version="1.0" encoding="UTF-8"?>
<svg xmlns="http://www.w3.org/2000/svg" xmlns:xlink="http://www.w3.org/1999/xlink" width="375pt" height="374.999991pt" viewBox="0 0 375 374.999991" version="1.2">
<defs>
<clipPath id="clip1">
  <path d="M 112.5 112.5 L 262.5 112.5 L 262.5 262.5 L 112.5 262.5 Z M 112.5 112.5 "/>
</clipPath>
</defs>
<g id="surface1">
<g clip-path="url(#clip1)" clip-rule="nonzero">
<path style=" stroke:none;fill-rule:nonzero;fill:rgb(100%,100%,100%);fill-opacity:1;" d="M 228.921875 187.4375 C 228.921875 210.328125 210.359375 228.859375 187.5 228.859375 C 164.640625 228.859375 146.078125 210.296875 146.078125 187.4375 C 146.078125 164.578125 164.640625 146.015625 187.5 146.015625 C 210.359375 146.015625 228.921875 164.542969 228.921875 187.4375 Z M 192.433594 131.597656 L 192.433594 117.433594 C 192.433594 114.714844 190.21875 112.5 187.5 112.5 C 184.78125 112.5 182.566406 114.714844 182.566406 117.433594 L 182.566406 131.597656 C 182.566406 134.316406 184.78125 136.53125 187.5 136.53125 C 190.21875 136.53125 192.433594 134.316406 192.433594 131.597656 Z M 230.535156 151.453125 L 240.554688 141.429688 C 242.484375 139.503906 242.484375 136.371094 240.554688 134.476562 C 238.628906 132.546875 235.496094 132.546875 233.601562 134.476562 L 223.578125 144.5 C 221.648438 146.425781 221.648438 149.558594 223.578125 151.453125 C 225.472656 153.382812 228.605469 153.382812 230.535156 151.453125 Z M 243.402344 192.433594 L 257.566406 192.433594 C 260.285156 192.433594 262.5 190.21875 262.5 187.5 C 262.5 184.78125 260.285156 182.566406 257.566406 182.566406 L 243.402344 182.566406 C 240.683594 182.566406 238.46875 184.78125 238.46875 187.5 C 238.46875 190.21875 240.683594 192.433594 243.402344 192.433594 Z M 223.546875 230.535156 L 233.570312 240.554688 C 235.496094 242.484375 238.628906 242.484375 240.523438 240.554688 C 242.453125 238.628906 242.453125 235.496094 240.523438 233.601562 L 230.5 223.578125 C 228.574219 221.648438 225.441406 221.648438 223.546875 223.578125 C 221.617188 225.472656 221.617188 228.605469 223.546875 230.535156 Z M 182.566406 243.402344 L 182.566406 257.566406 C 182.566406 260.285156 184.78125 262.5 187.5 262.5 C 190.21875 262.5 192.433594 260.285156 192.433594 257.566406 L 192.433594 243.402344 C 192.433594 240.683594 190.21875 238.46875 187.5 238.46875 C 184.78125 238.46875 182.566406 240.683594 182.566406 243.402344 Z M 144.464844 223.546875 L 134.445312 233.570312 C 132.515625 235.496094 132.515625 238.628906 134.445312 240.523438 C 136.371094 242.453125 139.503906 242.453125 141.398438 240.523438 L 151.421875 230.5 C 153.351562 228.574219 153.351562 225.441406 151.421875 223.546875 C 149.527344 221.617188 146.394531 221.617188 144.464844 223.546875 Z M 131.597656 182.566406 L 117.433594 182.566406 C 114.714844 182.566406 112.5 184.78125 112.5 187.5 C 112.5 190.21875 114.714844 192.433594 117.433594 192.433594 L 131.597656 192.433594 C 134.316406 192.433594 136.53125 190.21875 136.53125 187.5 C 136.53125 184.78125 134.316406 182.566406 131.597656 182.566406 Z M 151.453125 144.464844 L 141.429688 134.476562 C 139.503906 132.546875 136.371094 132.546875 134.476562 134.476562 C 132.546875 136.402344 132.546875 139.535156 134.476562 141.429688 L 144.5 151.453125 C 146.425781 153.382812 149.558594 153.382812 151.453125 151.453125 C 153.382812 149.527344 153.382812 146.394531 151.453125 144.464844 Z M 192.433594 131.597656 L 192.433594 117.433594 C 192.433594 114.714844 190.21875 112.5 187.5 112.5 C 184.78125 112.5 182.566406 114.714844 182.566406 117.433594 L 182.566406 131.597656 C 182.566406 134.316406 184.78125 136.53125 187.5 136.53125 C 190.21875 136.53125 192.433594 134.316406 192.433594 131.597656 Z M 192.433594 131.597656 "/>
</g>
</g>
</svg>
